<svg height="512" viewBox="0 0 128 128" width="512" xmlns="http://www.w3.org/2000/svg"><g id="Document,-file,-folder-icon" fill="none" fill-rule="evenodd"><path id="Shape" d="m109 45c3.785452 0 6.869099 3.0047834 6.995941 6.7593502l.004059.2406498v48c0 3.785452-3.004783 6.869099-6.75935 6.995941l-.24065.004059h-90c-3.7854517 0-6.8690987-3.004783-6.995941-6.75935l-.004059-.24065v-48c0-3.7854517 3.0047834-6.8690987 6.7593502-6.995941l.2406498-.004059zm-75-24c.307355 0 .5949905.1411038.7831675.3781638l.0743254.1073404 5.7085071 9.5144958h68.434c3.70491 0 6.737562 2.8782805 6.983851 6.520737l.01209.2386132.004929.2406498v8.3437409c-.199831-.247026-.41247-.4832634-.636909-.7077019-1.557867-1.5578675-3.684202-2.547268-6.04116-2.6303579l-.322801-.0056811h-90c-2.4852814 0-4.7352814 1.0073593-6.363961 2.636039-.2241385.2241385-.4365097.4600442-.6361074.7067112v-18.3427502c0-3.7854517 3.0048518-6.8690987 6.7594186-6.995941l.2406498-.004059z" fill="rgb(0,0,0)" fill-rule="nonzero"/></g></svg>